<svg width="94.000000" height="28.000000" viewBox="0 0 94 28" fill="none" xmlns="http://www.w3.org/2000/svg" xmlns:xlink="http://www.w3.org/1999/xlink">
	<desc>
			Created with Pixso.
	</desc>
	<defs/>
	<rect id="Rectangle 11" y="11.500000" rx="2.000000" width="16.000000" height="16.000000" fill="#1E1E1E" fill-opacity="1.000000"/>
	<rect id="Rectangle 13" x="5.000000" y="15.500000" width="6.000000" height="9.000000" fill="#FFFFFF" fill-opacity="1.000000"/>
	<path id="Rectangle 12" d="M11.43 4.93C13.35 7.7 11.37 11.5 8 11.5C4.62 11.5 2.64 7.7 4.56 4.93C6.23 2.54 9.76 2.54 11.43 4.93Z" fill="#1E1E1E" fill-opacity="1.000000" fill-rule="nonzero"/>
	<path id="Vector" d="M85.05 10.41C86.83 10.41 88.38 10.77 89.71 11.49C91.05 12.19 92.08 13.18 92.8 14.46C93.52 15.74 93.88 17.21 93.88 18.86C93.88 20.49 93.51 21.94 92.78 23.22C92.06 24.5 91.03 25.51 89.68 26.25C88.35 26.97 86.81 27.33 85.05 27.33L78.35 27.33L78.35 10.41L85.05 10.41ZM84.69 23.18C86.07 23.18 87.15 22.8 87.93 22.05C88.71 21.3 89.11 20.23 89.11 18.86C89.11 17.46 88.71 16.39 87.93 15.64C87.15 14.87 86.07 14.49 84.69 14.49L83.06 14.49L83.06 23.18L84.69 23.18Z" fill="#1E1E1E" fill-opacity="1.000000" fill-rule="nonzero"/>
	<path id="Vector" d="M71.27 23.73L76.53 23.73L76.53 27.33L66.57 27.33L66.57 10.41L71.27 10.41L71.27 23.73Z" fill="#1E1E1E" fill-opacity="1.000000" fill-rule="nonzero"/>
	<path id="Vector" d="M63.89 10.41L63.89 27.33L59.18 27.33L59.18 10.41L63.89 10.41Z" fill="#1E1E1E" fill-opacity="1.000000" fill-rule="nonzero"/>
	<path id="Vector" d="M46.7 10.41L46.7 20.22C46.7 21.14 46.91 21.84 47.33 22.34C47.76 22.83 48.41 23.08 49.27 23.08C50.14 23.08 50.78 22.83 51.22 22.34C51.66 21.82 51.89 21.12 51.89 20.22L51.89 10.41L56.59 10.41L56.59 20.22C56.59 21.78 56.26 23.1 55.61 24.21C54.95 25.3 54.06 26.12 52.92 26.68C51.8 27.22 50.55 27.5 49.18 27.5C47.8 27.5 46.57 27.22 45.48 26.68C44.41 26.12 43.56 25.3 42.94 24.21C42.33 23.12 42.02 21.79 42.02 20.22L42.02 10.41L46.7 10.41Z" fill="#1E1E1E" fill-opacity="1.000000" fill-rule="nonzero"/>
	<path id="Vector" d="M36.8 18.64C37.79 18.86 38.57 19.36 39.15 20.13C39.74 20.88 40.04 21.74 40.04 22.72C40.04 24.16 39.54 25.29 38.55 26.1C37.56 26.92 36.16 27.33 34.37 27.33L26 27.33L26 10.41L34.11 10.41C35.84 10.41 37.19 10.79 38.16 11.56C39.16 12.33 39.65 13.41 39.65 14.8C39.65 15.79 39.39 16.62 38.86 17.29C38.35 17.95 37.66 18.4 36.8 18.64ZM30.7 17.13L33.08 17.13C34.26 17.13 34.85 16.64 34.85 15.66C34.85 14.66 34.26 14.15 33.08 14.15L30.7 14.15L30.7 17.13ZM33.43 23.54C34.62 23.54 35.21 23.04 35.21 22.05C35.21 21.54 35.05 21.14 34.73 20.87C34.43 20.6 33.99 20.46 33.41 20.46L30.7 20.46L30.7 23.54L33.43 23.54Z" fill="#1E1E1E" fill-opacity="1.000000" fill-rule="nonzero"/>
</svg>
